Format                           : MPEG-4
Format profile                   : Base Media / Version 2
Codec ID                         : mp42
File size                        : 538 MiB
Duration                         : 1h 42mn
Overall bit rate                 : 735 Kbps

Video
ID                               : 1
Format                           : AVC
Format/Info                      : Advanced Video Codec
Format profile                   : Main@L3.0
Format settings, CABAC           : Yes
Format settings, ReFrames        : 3 frames
Codec ID                         : avc1
Codec ID/Info                    : Advanced Video Coding
Duration                         : 1h 42mn
Bit rate mode                    : Variable
Bit rate                         : 607 Kbps
Width                            : 704 pixels
Height                           : 304 pixels
Display aspect ratio             : 2.35:1
Frame rate mode                  : Variable
Frame rate                       : 30.000 fps
Minimum frame rate               : 30.000 fps
Maximum frame rate               : 30.030 fps
Standard                         : NTSC
Resolution                       : 8 bits
Colorimetry                      : 4:2:0
Scan type                        : Progressive
Bits/(Pixel*Frame)               : 0.095
Stream size                      : 444 MiB (83%)
Language                         : English
Encoded date                     : UTC 2013-03-01 19:42:27
Tagged date                      : UTC 2013-03-01 19:42:27

Audio
ID                               : 2
Format                           : AAC
Format/Info                      : Advanced Audio Codec
Format version                   : Version 4
Format profile                   : LC
Format settings, SBR             : No
Codec ID                         : 40
Duration                         : 1h 42mn
Bit rate mode                    : Variable
Bit rate                         : 126 Kbps
Maximum bit rate                 : 250 Kbps
Channel(s)                       : 2 channels
Channel positions                : Front: L R
Sampling rate                    : 44.1 KHz
Stream size                      : 91.9 MiB (17%)
Language                         : English
Encoded date                     : UTC 2013-03-01 19:42:27
Tagged date                      : UTC 2013-03-01 19:42:27

